<?xml version="1.0" encoding="utf-8" standalone="no"?>
<!DOCTYPE svg PUBLIC "-//W3C//DTD SVG 1.1//EN"
  "http://www.w3.org/Graphics/SVG/1.1/DTD/svg11.dtd">
<!-- Created with matplotlib (https://matplotlib.org/) -->
<svg height="286.68pt" version="1.1" viewBox="0 0 531.043125 286.68" width="531.043125pt" xmlns="http://www.w3.org/2000/svg" xmlns:xlink="http://www.w3.org/1999/xlink">
 <metadata>
  <rdf:RDF xmlns:cc="http://creativecommons.org/ns#" xmlns:dc="http://purl.org/dc/elements/1.1/" xmlns:rdf="http://www.w3.org/1999/02/22-rdf-syntax-ns#">
   <cc:Work>
    <dc:type rdf:resource="http://purl.org/dc/dcmitype/StillImage"/>
    <dc:date>2021-01-20T12:11:10.401264</dc:date>
    <dc:format>image/svg+xml</dc:format>
    <dc:creator>
     <cc:Agent>
      <dc:title>Matplotlib v3.3.2, https://matplotlib.org/</dc:title>
     </cc:Agent>
    </dc:creator>
   </cc:Work>
  </rdf:RDF>
 </metadata>
 <defs>
  <style type="text/css">*{stroke-linecap:butt;stroke-linejoin:round;}</style>
 </defs>
 <g id="figure_1">
  <g id="patch_1">
   <path d="M 0 286.68 
L 531.043125 286.68 
L 531.043125 0 
L 0 0 
z
" style="fill:#ffffff;"/>
  </g>
  <g id="axes_1">
   <g id="patch_2">
    <path d="M 43.482813 253.33625 
L 378.282813 253.33625 
L 378.282813 35.89625 
L 43.482813 35.89625 
z
" style="fill:#eaeaf2;"/>
   </g>
   <g id="matplotlib.axis_1">
    <g id="xtick_1">
     <g id="line2d_1">
      <path clip-path="url(#pa3c2148993)" d="M 83.300056 253.33625 
L 83.300056 35.89625 
" style="fill:none;stroke:#ffffff;stroke-linecap:round;stroke-width:0.8;"/>
     </g>
     <g id="line2d_2"/>
     <g id="text_1">
      <!-- $\mathdefault{10^{2}}$ -->
      <g style="fill:#262626;" transform="translate(75.600056 264.083125)scale(0.1 -0.1)">
       <defs>
        <path d="M 7.625 0 
L 7.625 7.46875 
L 25.140625 7.46875 
L 25.140625 60.40625 
L 9.625 49.3125 
L 9.625 57.625 
L 25.875 68.796875 
L 33.984375 68.796875 
L 33.984375 7.46875 
L 50.734375 7.46875 
L 50.734375 0 
z
" id="LiberationSans-49"/>
        <path d="M 51.703125 34.421875 
Q 51.703125 17.1875 45.625 8.09375 
Q 39.546875 -0.984375 27.6875 -0.984375 
Q 15.828125 -0.984375 9.859375 8.046875 
Q 3.90625 17.09375 3.90625 34.421875 
Q 3.90625 52.15625 9.6875 60.984375 
Q 15.484375 69.828125 27.984375 69.828125 
Q 40.140625 69.828125 45.921875 60.890625 
Q 51.703125 51.953125 51.703125 34.421875 
z
M 42.78125 34.421875 
Q 42.78125 49.3125 39.328125 56 
Q 35.890625 62.703125 27.984375 62.703125 
Q 19.875 62.703125 16.328125 56.109375 
Q 12.796875 49.515625 12.796875 34.421875 
Q 12.796875 19.78125 16.375 12.984375 
Q 19.96875 6.203125 27.78125 6.203125 
Q 35.546875 6.203125 39.15625 13.125 
Q 42.78125 20.0625 42.78125 34.421875 
z
" id="LiberationSans-48"/>
        <path d="M 5.03125 0 
L 5.03125 6.203125 
Q 7.515625 11.921875 11.109375 16.28125 
Q 14.703125 20.65625 18.65625 24.1875 
Q 22.609375 27.734375 26.484375 30.765625 
Q 30.375 33.796875 33.5 36.8125 
Q 36.625 39.84375 38.546875 43.15625 
Q 40.484375 46.484375 40.484375 50.6875 
Q 40.484375 56.34375 37.15625 59.46875 
Q 33.84375 62.59375 27.9375 62.59375 
Q 22.3125 62.59375 18.671875 59.546875 
Q 15.046875 56.5 14.40625 50.984375 
L 5.421875 51.8125 
Q 6.390625 60.0625 12.421875 64.9375 
Q 18.453125 69.828125 27.9375 69.828125 
Q 38.328125 69.828125 43.921875 64.921875 
Q 49.515625 60.015625 49.515625 50.984375 
Q 49.515625 46.96875 47.671875 43.015625 
Q 45.84375 39.0625 42.234375 35.109375 
Q 38.625 31.15625 28.421875 22.859375 
Q 22.796875 18.265625 19.46875 14.578125 
Q 16.15625 10.890625 14.703125 7.46875 
L 50.59375 7.46875 
L 50.59375 0 
z
" id="LiberationSans-50"/>
       </defs>
       <use transform="translate(0 0.140625)" xlink:href="#LiberationSans-49"/>
       <use transform="translate(55.615234 0.140625)" xlink:href="#LiberationSans-48"/>
       <use transform="translate(112.154961 37.120312)scale(0.7)" xlink:href="#LiberationSans-50"/>
      </g>
     </g>
    </g>
    <g id="xtick_2">
     <g id="line2d_3">
      <path clip-path="url(#pa3c2148993)" d="M 176.901171 253.33625 
L 176.901171 35.89625 
" style="fill:none;stroke:#ffffff;stroke-linecap:round;stroke-width:0.8;"/>
     </g>
     <g id="line2d_4"/>
     <g id="text_2">
      <!-- $\mathdefault{10^{3}}$ -->
      <g style="fill:#262626;" transform="translate(169.201171 264.083125)scale(0.1 -0.1)">
       <defs>
        <path d="M 51.21875 19 
Q 51.21875 9.46875 45.15625 4.234375 
Q 39.109375 -0.984375 27.875 -0.984375 
Q 17.4375 -0.984375 11.203125 3.734375 
Q 4.984375 8.453125 3.8125 17.671875 
L 12.890625 18.5 
Q 14.65625 6.296875 27.875 6.296875 
Q 34.515625 6.296875 38.296875 9.5625 
Q 42.09375 12.84375 42.09375 19.28125 
Q 42.09375 24.90625 37.765625 28.046875 
Q 33.453125 31.203125 25.296875 31.203125 
L 20.3125 31.203125 
L 20.3125 38.8125 
L 25.09375 38.8125 
Q 32.328125 38.8125 36.296875 41.96875 
Q 40.28125 45.125 40.28125 50.6875 
Q 40.28125 56.203125 37.03125 59.390625 
Q 33.796875 62.59375 27.390625 62.59375 
Q 21.578125 62.59375 17.984375 59.609375 
Q 14.40625 56.640625 13.8125 51.21875 
L 4.984375 51.90625 
Q 5.953125 60.359375 11.984375 65.09375 
Q 18.015625 69.828125 27.484375 69.828125 
Q 37.84375 69.828125 43.578125 65.015625 
Q 49.3125 60.203125 49.3125 51.609375 
Q 49.3125 45.015625 45.625 40.890625 
Q 41.9375 36.765625 34.90625 35.296875 
L 34.90625 35.109375 
Q 42.625 34.28125 46.921875 29.9375 
Q 51.21875 25.59375 51.21875 19 
z
" id="LiberationSans-51"/>
       </defs>
       <use transform="translate(0 0.140625)" xlink:href="#LiberationSans-49"/>
       <use transform="translate(55.615234 0.140625)" xlink:href="#LiberationSans-48"/>
       <use transform="translate(112.154961 37.120312)scale(0.7)" xlink:href="#LiberationSans-51"/>
      </g>
     </g>
    </g>
    <g id="xtick_3">
     <g id="line2d_5">
      <path clip-path="url(#pa3c2148993)" d="M 270.502286 253.33625 
L 270.502286 35.89625 
" style="fill:none;stroke:#ffffff;stroke-linecap:round;stroke-width:0.8;"/>
     </g>
     <g id="line2d_6"/>
     <g id="text_3">
      <!-- $\mathdefault{10^{4}}$ -->
      <g style="fill:#262626;" transform="translate(262.802286 264.083125)scale(0.1 -0.1)">
       <defs>
        <path d="M 43.015625 15.578125 
L 43.015625 0 
L 34.71875 0 
L 34.71875 15.578125 
L 2.296875 15.578125 
L 2.296875 22.40625 
L 33.796875 68.796875 
L 43.015625 68.796875 
L 43.015625 22.515625 
L 52.6875 22.515625 
L 52.6875 15.578125 
z
M 34.71875 58.890625 
Q 34.625 58.59375 33.34375 56.296875 
Q 32.078125 54 31.453125 53.078125 
L 13.8125 27.09375 
L 11.1875 23.484375 
L 10.40625 22.515625 
L 34.71875 22.515625 
z
" id="LiberationSans-52"/>
       </defs>
       <use transform="translate(0 0.8625)" xlink:href="#LiberationSans-49"/>
       <use transform="translate(55.615234 0.8625)" xlink:href="#LiberationSans-48"/>
       <use transform="translate(112.154961 37.842188)scale(0.7)" xlink:href="#LiberationSans-52"/>
      </g>
     </g>
    </g>
    <g id="xtick_4">
     <g id="line2d_7">
      <path clip-path="url(#pa3c2148993)" d="M 364.103401 253.33625 
L 364.103401 35.89625 
" style="fill:none;stroke:#ffffff;stroke-linecap:round;stroke-width:0.8;"/>
     </g>
     <g id="line2d_8"/>
     <g id="text_4">
      <!-- $\mathdefault{10^{5}}$ -->
      <g style="fill:#262626;" transform="translate(356.403401 264.083125)scale(0.1 -0.1)">
       <defs>
        <path d="M 51.421875 22.40625 
Q 51.421875 11.53125 44.953125 5.265625 
Q 38.484375 -0.984375 27 -0.984375 
Q 17.390625 -0.984375 11.46875 3.21875 
Q 5.5625 7.421875 4 15.375 
L 12.890625 16.40625 
Q 15.671875 6.203125 27.203125 6.203125 
Q 34.28125 6.203125 38.28125 10.46875 
Q 42.28125 14.75 42.28125 22.21875 
Q 42.28125 28.71875 38.25 32.71875 
Q 34.234375 36.71875 27.390625 36.71875 
Q 23.828125 36.71875 20.75 35.59375 
Q 17.671875 34.46875 14.59375 31.78125 
L 6 31.78125 
L 8.296875 68.796875 
L 47.40625 68.796875 
L 47.40625 61.328125 
L 16.3125 61.328125 
L 14.984375 39.5 
Q 20.703125 43.890625 29.203125 43.890625 
Q 39.359375 43.890625 45.390625 37.9375 
Q 51.421875 31.984375 51.421875 22.40625 
z
" id="LiberationSans-53"/>
       </defs>
       <use transform="translate(0 0.8625)" xlink:href="#LiberationSans-49"/>
       <use transform="translate(55.615234 0.8625)" xlink:href="#LiberationSans-48"/>
       <use transform="translate(112.154961 37.842188)scale(0.7)" xlink:href="#LiberationSans-53"/>
      </g>
     </g>
    </g>
    <g id="xtick_5">
     <g id="line2d_9"/>
    </g>
    <g id="xtick_6">
     <g id="line2d_10"/>
    </g>
    <g id="xtick_7">
     <g id="line2d_11"/>
    </g>
    <g id="xtick_8">
     <g id="line2d_12"/>
    </g>
    <g id="xtick_9">
     <g id="line2d_13"/>
    </g>
    <g id="xtick_10">
     <g id="line2d_14"/>
    </g>
    <g id="xtick_11">
     <g id="line2d_15"/>
    </g>
    <g id="xtick_12">
     <g id="line2d_16"/>
    </g>
    <g id="xtick_13">
     <g id="line2d_17"/>
    </g>
    <g id="xtick_14">
     <g id="line2d_18"/>
    </g>
    <g id="xtick_15">
     <g id="line2d_19"/>
    </g>
    <g id="xtick_16">
     <g id="line2d_20"/>
    </g>
    <g id="xtick_17">
     <g id="line2d_21"/>
    </g>
    <g id="xtick_18">
     <g id="line2d_22"/>
    </g>
    <g id="xtick_19">
     <g id="line2d_23"/>
    </g>
    <g id="xtick_20">
     <g id="line2d_24"/>
    </g>
    <g id="xtick_21">
     <g id="line2d_25"/>
    </g>
    <g id="xtick_22">
     <g id="line2d_26"/>
    </g>
    <g id="xtick_23">
     <g id="line2d_27"/>
    </g>
    <g id="xtick_24">
     <g id="line2d_28"/>
    </g>
    <g id="xtick_25">
     <g id="line2d_29"/>
    </g>
    <g id="xtick_26">
     <g id="line2d_30"/>
    </g>
    <g id="xtick_27">
     <g id="line2d_31"/>
    </g>
    <g id="xtick_28">
     <g id="line2d_32"/>
    </g>
    <g id="xtick_29">
     <g id="line2d_33"/>
    </g>
    <g id="xtick_30">
     <g id="line2d_34"/>
    </g>
    <g id="xtick_31">
     <g id="line2d_35"/>
    </g>
    <g id="xtick_32">
     <g id="line2d_36"/>
    </g>
    <g id="xtick_33">
     <g id="line2d_37"/>
    </g>
    <g id="xtick_34">
     <g id="line2d_38"/>
    </g>
    <g id="text_5">
     <!-- used Samples of Train Dataset -->
     <g style="fill:#262626;" transform="translate(142.517187 277.405)scale(0.1 -0.1)">
      <defs>
       <path d="M 15.328125 52.828125 
L 15.328125 19.34375 
Q 15.328125 14.109375 16.359375 11.21875 
Q 17.390625 8.34375 19.625 7.078125 
Q 21.875 5.8125 26.21875 5.8125 
Q 32.5625 5.8125 36.21875 10.15625 
Q 39.890625 14.5 39.890625 22.21875 
L 39.890625 52.828125 
L 48.6875 52.828125 
L 48.6875 11.28125 
Q 48.6875 2.046875 48.96875 0 
L 40.671875 0 
Q 40.625 0.25 40.578125 1.3125 
Q 40.53125 2.390625 40.453125 3.78125 
Q 40.375 5.171875 40.28125 9.03125 
L 40.140625 9.03125 
Q 37.109375 3.5625 33.125 1.28125 
Q 29.15625 -0.984375 23.25 -0.984375 
Q 14.546875 -0.984375 10.515625 3.34375 
Q 6.5 7.671875 6.5 17.625 
L 6.5 52.828125 
z
" id="LiberationSans-117"/>
       <path d="M 46.390625 14.59375 
Q 46.390625 7.125 40.75 3.0625 
Q 35.109375 -0.984375 24.953125 -0.984375 
Q 15.09375 -0.984375 9.734375 2.265625 
Q 4.390625 5.515625 2.78125 12.40625 
L 10.546875 13.921875 
Q 11.671875 9.671875 15.1875 7.6875 
Q 18.703125 5.71875 24.953125 5.71875 
Q 31.640625 5.71875 34.734375 7.765625 
Q 37.84375 9.8125 37.84375 13.921875 
Q 37.84375 17.046875 35.6875 19 
Q 33.546875 20.953125 28.765625 22.21875 
L 22.46875 23.875 
Q 14.890625 25.828125 11.6875 27.703125 
Q 8.5 29.59375 6.6875 32.28125 
Q 4.890625 34.96875 4.890625 38.875 
Q 4.890625 46.09375 10.03125 49.875 
Q 15.1875 53.65625 25.046875 53.65625 
Q 33.796875 53.65625 38.9375 50.578125 
Q 44.09375 47.515625 45.453125 40.71875 
L 37.546875 39.75 
Q 36.8125 43.265625 33.609375 45.140625 
Q 30.421875 47.015625 25.046875 47.015625 
Q 19.09375 47.015625 16.25 45.203125 
Q 13.421875 43.40625 13.421875 39.75 
Q 13.421875 37.5 14.59375 36.03125 
Q 15.765625 34.578125 18.0625 33.546875 
Q 20.359375 32.515625 27.734375 30.71875 
Q 34.71875 28.953125 37.796875 27.46875 
Q 40.875 25.984375 42.65625 24.171875 
Q 44.4375 22.359375 45.40625 19.984375 
Q 46.390625 17.625 46.390625 14.59375 
z
" id="LiberationSans-115"/>
       <path d="M 13.484375 24.5625 
Q 13.484375 15.484375 17.234375 10.546875 
Q 21 5.609375 28.21875 5.609375 
Q 33.9375 5.609375 37.375 7.90625 
Q 40.828125 10.203125 42.046875 13.71875 
L 49.75 11.53125 
Q 45.015625 -0.984375 28.21875 -0.984375 
Q 16.5 -0.984375 10.375 6 
Q 4.25 12.984375 4.25 26.765625 
Q 4.25 39.84375 10.375 46.828125 
Q 16.5 53.8125 27.875 53.8125 
Q 51.171875 53.8125 51.171875 25.734375 
L 51.171875 24.5625 
z
M 42.09375 31.296875 
Q 41.359375 39.65625 37.84375 43.484375 
Q 34.328125 47.3125 27.734375 47.3125 
Q 21.34375 47.3125 17.609375 43.03125 
Q 13.875 38.765625 13.578125 31.296875 
z
" id="LiberationSans-101"/>
       <path d="M 40.09375 8.5 
Q 37.640625 3.421875 33.609375 1.21875 
Q 29.59375 -0.984375 23.640625 -0.984375 
Q 13.625 -0.984375 8.90625 5.75 
Q 4.203125 12.5 4.203125 26.171875 
Q 4.203125 53.8125 23.640625 53.8125 
Q 29.640625 53.8125 33.640625 51.609375 
Q 37.640625 49.421875 40.09375 44.625 
L 40.1875 44.625 
L 40.09375 50.53125 
L 40.09375 72.46875 
L 48.875 72.46875 
L 48.875 10.890625 
Q 48.875 2.640625 49.171875 0 
L 40.765625 0 
Q 40.625 0.78125 40.453125 3.609375 
Q 40.28125 6.453125 40.28125 8.5 
z
M 13.421875 26.46875 
Q 13.421875 15.375 16.34375 10.59375 
Q 19.28125 5.8125 25.875 5.8125 
Q 33.34375 5.8125 36.71875 10.984375 
Q 40.09375 16.15625 40.09375 27.046875 
Q 40.09375 37.546875 36.71875 42.421875 
Q 33.34375 47.3125 25.984375 47.3125 
Q 19.34375 47.3125 16.375 42.40625 
Q 13.421875 37.5 13.421875 26.46875 
z
" id="LiberationSans-100"/>
       <path id="LiberationSans-32"/>
       <path d="M 62.109375 19 
Q 62.109375 9.46875 54.65625 4.234375 
Q 47.21875 -0.984375 33.6875 -0.984375 
Q 8.546875 -0.984375 4.546875 16.5 
L 13.578125 18.3125 
Q 15.140625 12.109375 20.21875 9.203125 
Q 25.296875 6.296875 34.03125 6.296875 
Q 43.0625 6.296875 47.96875 9.390625 
Q 52.875 12.5 52.875 18.5 
Q 52.875 21.875 51.34375 23.96875 
Q 49.8125 26.078125 47.015625 27.4375 
Q 44.234375 28.8125 40.375 29.734375 
Q 36.53125 30.671875 31.84375 31.734375 
Q 23.6875 33.546875 19.453125 35.34375 
Q 15.234375 37.15625 12.796875 39.375 
Q 10.359375 41.609375 9.0625 44.578125 
Q 7.765625 47.5625 7.765625 51.421875 
Q 7.765625 60.25 14.53125 65.03125 
Q 21.296875 69.828125 33.890625 69.828125 
Q 45.609375 69.828125 51.8125 66.234375 
Q 58.015625 62.640625 60.5 54 
L 51.3125 52.390625 
Q 49.8125 57.859375 45.5625 60.328125 
Q 41.3125 62.796875 33.796875 62.796875 
Q 25.53125 62.796875 21.1875 60.0625 
Q 16.84375 57.328125 16.84375 51.90625 
Q 16.84375 48.734375 18.53125 46.65625 
Q 20.21875 44.578125 23.390625 43.140625 
Q 26.5625 41.703125 36.03125 39.59375 
Q 39.203125 38.875 42.359375 38.109375 
Q 45.515625 37.359375 48.390625 36.296875 
Q 51.265625 35.25 53.78125 33.828125 
Q 56.296875 32.421875 58.15625 30.375 
Q 60.015625 28.328125 61.0625 25.53125 
Q 62.109375 22.75 62.109375 19 
z
" id="LiberationSans-83"/>
       <path d="M 20.21875 -0.984375 
Q 12.25 -0.984375 8.25 3.21875 
Q 4.25 7.421875 4.25 14.75 
Q 4.25 22.953125 9.640625 27.34375 
Q 15.046875 31.734375 27.046875 32.03125 
L 38.921875 32.234375 
L 38.921875 35.109375 
Q 38.921875 41.546875 36.1875 44.328125 
Q 33.453125 47.125 27.59375 47.125 
Q 21.6875 47.125 19 45.109375 
Q 16.3125 43.109375 15.765625 38.71875 
L 6.59375 39.546875 
Q 8.84375 53.8125 27.78125 53.8125 
Q 37.75 53.8125 42.765625 49.234375 
Q 47.796875 44.671875 47.796875 36.03125 
L 47.796875 13.28125 
Q 47.796875 9.375 48.828125 7.390625 
Q 49.859375 5.421875 52.734375 5.421875 
Q 54 5.421875 55.609375 5.765625 
L 55.609375 0.296875 
Q 52.296875 -0.484375 48.828125 -0.484375 
Q 43.953125 -0.484375 41.71875 2.078125 
Q 39.5 4.640625 39.203125 10.109375 
L 38.921875 10.109375 
Q 35.546875 4.046875 31.078125 1.53125 
Q 26.609375 -0.984375 20.21875 -0.984375 
z
M 22.21875 5.609375 
Q 27.046875 5.609375 30.8125 7.8125 
Q 34.578125 10.015625 36.75 13.84375 
Q 38.921875 17.671875 38.921875 21.734375 
L 38.921875 26.078125 
L 29.296875 25.875 
Q 23.09375 25.78125 19.890625 24.609375 
Q 16.703125 23.4375 14.984375 21 
Q 13.28125 18.5625 13.28125 14.59375 
Q 13.28125 10.296875 15.59375 7.953125 
Q 17.921875 5.609375 22.21875 5.609375 
z
" id="LiberationSans-97"/>
       <path d="M 37.5 0 
L 37.5 33.5 
Q 37.5 41.15625 35.390625 44.078125 
Q 33.296875 47.015625 27.828125 47.015625 
Q 22.21875 47.015625 18.9375 42.71875 
Q 15.671875 38.421875 15.671875 30.609375 
L 15.671875 0 
L 6.9375 0 
L 6.9375 41.546875 
Q 6.9375 50.78125 6.640625 52.828125 
L 14.9375 52.828125 
Q 14.984375 52.59375 15.03125 51.515625 
Q 15.09375 50.4375 15.15625 49.046875 
Q 15.234375 47.65625 15.328125 43.796875 
L 15.484375 43.796875 
Q 18.3125 49.421875 21.96875 51.609375 
Q 25.640625 53.8125 30.90625 53.8125 
Q 36.921875 53.8125 40.40625 51.421875 
Q 43.890625 49.03125 45.265625 43.796875 
L 45.40625 43.796875 
Q 48.140625 49.125 52.015625 51.46875 
Q 55.90625 53.8125 61.421875 53.8125 
Q 69.4375 53.8125 73.0625 49.46875 
Q 76.703125 45.125 76.703125 35.203125 
L 76.703125 0 
L 68.015625 0 
L 68.015625 33.5 
Q 68.015625 41.15625 65.90625 44.078125 
Q 63.8125 47.015625 58.34375 47.015625 
Q 52.59375 47.015625 49.390625 42.75 
Q 46.1875 38.484375 46.1875 30.609375 
L 46.1875 0 
z
" id="LiberationSans-109"/>
       <path d="M 51.421875 26.65625 
Q 51.421875 -0.984375 31.984375 -0.984375 
Q 19.78125 -0.984375 15.578125 8.203125 
L 15.328125 8.203125 
Q 15.53125 7.8125 15.53125 -0.09375 
L 15.53125 -20.75 
L 6.734375 -20.75 
L 6.734375 42.046875 
Q 6.734375 50.203125 6.453125 52.828125 
L 14.9375 52.828125 
Q 14.984375 52.640625 15.078125 51.4375 
Q 15.1875 50.25 15.3125 47.75 
Q 15.4375 45.265625 15.4375 44.34375 
L 15.625 44.34375 
Q 17.96875 49.21875 21.828125 51.484375 
Q 25.6875 53.765625 31.984375 53.765625 
Q 41.75 53.765625 46.578125 47.21875 
Q 51.421875 40.671875 51.421875 26.65625 
z
M 42.1875 26.46875 
Q 42.1875 37.5 39.203125 42.234375 
Q 36.234375 46.96875 29.734375 46.96875 
Q 24.515625 46.96875 21.5625 44.765625 
Q 18.609375 42.578125 17.0625 37.90625 
Q 15.53125 33.25 15.53125 25.78125 
Q 15.53125 15.375 18.84375 10.4375 
Q 22.171875 5.515625 29.640625 5.515625 
Q 36.1875 5.515625 39.1875 10.328125 
Q 42.1875 15.140625 42.1875 26.46875 
z
" id="LiberationSans-112"/>
       <path d="M 6.734375 0 
L 6.734375 72.46875 
L 15.53125 72.46875 
L 15.53125 0 
z
" id="LiberationSans-108"/>
       <path d="M 51.421875 26.46875 
Q 51.421875 12.59375 45.3125 5.796875 
Q 39.203125 -0.984375 27.59375 -0.984375 
Q 16.015625 -0.984375 10.109375 6.078125 
Q 4.203125 13.140625 4.203125 26.46875 
Q 4.203125 53.8125 27.875 53.8125 
Q 39.984375 53.8125 45.703125 47.140625 
Q 51.421875 40.484375 51.421875 26.46875 
z
M 42.1875 26.46875 
Q 42.1875 37.40625 38.9375 42.359375 
Q 35.6875 47.3125 28.03125 47.3125 
Q 20.3125 47.3125 16.859375 42.25 
Q 13.421875 37.203125 13.421875 26.46875 
Q 13.421875 16.015625 16.8125 10.765625 
Q 20.21875 5.515625 27.484375 5.515625 
Q 35.40625 5.515625 38.796875 10.59375 
Q 42.1875 15.671875 42.1875 26.46875 
z
" id="LiberationSans-111"/>
       <path d="M 17.625 46.4375 
L 17.625 0 
L 8.84375 0 
L 8.84375 46.4375 
L 1.421875 46.4375 
L 1.421875 52.828125 
L 8.84375 52.828125 
L 8.84375 58.796875 
Q 8.84375 66.015625 12.015625 69.1875 
Q 15.1875 72.359375 21.734375 72.359375 
Q 25.390625 72.359375 27.9375 71.78125 
L 27.9375 65.09375 
Q 25.734375 65.484375 24.03125 65.484375 
Q 20.65625 65.484375 19.140625 63.765625 
Q 17.625 62.0625 17.625 57.5625 
L 17.625 52.828125 
L 27.9375 52.828125 
L 27.9375 46.4375 
z
" id="LiberationSans-102"/>
       <path d="M 35.15625 61.1875 
L 35.15625 0 
L 25.875 0 
L 25.875 61.1875 
L 2.25 61.1875 
L 2.25 68.796875 
L 58.796875 68.796875 
L 58.796875 61.1875 
z
" id="LiberationSans-84"/>
       <path d="M 6.9375 0 
L 6.9375 40.53125 
Q 6.9375 46.09375 6.640625 52.828125 
L 14.9375 52.828125 
Q 15.328125 43.84375 15.328125 42.046875 
L 15.53125 42.046875 
Q 17.625 48.828125 20.359375 51.3125 
Q 23.09375 53.8125 28.078125 53.8125 
Q 29.828125 53.8125 31.640625 53.328125 
L 31.640625 45.265625 
Q 29.890625 45.75 26.953125 45.75 
Q 21.484375 45.75 18.59375 41.03125 
Q 15.71875 36.328125 15.71875 27.546875 
L 15.71875 0 
z
" id="LiberationSans-114"/>
       <path d="M 6.6875 64.0625 
L 6.6875 72.46875 
L 15.484375 72.46875 
L 15.484375 64.0625 
z
M 6.6875 0 
L 6.6875 52.828125 
L 15.484375 52.828125 
L 15.484375 0 
z
" id="LiberationSans-105"/>
       <path d="M 40.28125 0 
L 40.28125 33.5 
Q 40.28125 38.71875 39.25 41.59375 
Q 38.234375 44.484375 35.984375 45.75 
Q 33.734375 47.015625 29.390625 47.015625 
Q 23.046875 47.015625 19.375 42.671875 
Q 15.71875 38.328125 15.71875 30.609375 
L 15.71875 0 
L 6.9375 0 
L 6.9375 41.546875 
Q 6.9375 50.78125 6.640625 52.828125 
L 14.9375 52.828125 
Q 14.984375 52.59375 15.03125 51.515625 
Q 15.09375 50.4375 15.15625 49.046875 
Q 15.234375 47.65625 15.328125 43.796875 
L 15.484375 43.796875 
Q 18.5 49.265625 22.484375 51.53125 
Q 26.46875 53.8125 32.375 53.8125 
Q 41.0625 53.8125 45.09375 49.484375 
Q 49.125 45.171875 49.125 35.203125 
L 49.125 0 
z
" id="LiberationSans-110"/>
       <path d="M 67.4375 35.109375 
Q 67.4375 24.46875 63.28125 16.484375 
Q 59.125 8.5 51.5 4.25 
Q 43.890625 0 33.9375 0 
L 8.203125 0 
L 8.203125 68.796875 
L 30.953125 68.796875 
Q 48.4375 68.796875 57.9375 60.03125 
Q 67.4375 51.265625 67.4375 35.109375 
z
M 58.0625 35.109375 
Q 58.0625 47.90625 51.046875 54.609375 
Q 44.046875 61.328125 30.765625 61.328125 
L 17.53125 61.328125 
L 17.53125 7.46875 
L 32.859375 7.46875 
Q 40.4375 7.46875 46.171875 10.78125 
Q 51.90625 14.109375 54.984375 20.359375 
Q 58.0625 26.609375 58.0625 35.109375 
z
" id="LiberationSans-68"/>
       <path d="M 27.046875 0.390625 
Q 22.703125 -0.78125 18.171875 -0.78125 
Q 7.625 -0.78125 7.625 11.1875 
L 7.625 46.4375 
L 1.515625 46.4375 
L 1.515625 52.828125 
L 7.953125 52.828125 
L 10.546875 64.65625 
L 16.40625 64.65625 
L 16.40625 52.828125 
L 26.171875 52.828125 
L 26.171875 46.4375 
L 16.40625 46.4375 
L 16.40625 13.09375 
Q 16.40625 9.28125 17.640625 7.734375 
Q 18.890625 6.203125 21.96875 6.203125 
Q 23.734375 6.203125 27.046875 6.890625 
z
" id="LiberationSans-116"/>
      </defs>
      <use xlink:href="#LiberationSans-117"/>
      <use x="55.615234" xlink:href="#LiberationSans-115"/>
      <use x="105.615234" xlink:href="#LiberationSans-101"/>
      <use x="161.230469" xlink:href="#LiberationSans-100"/>
      <use x="216.845703" xlink:href="#LiberationSans-32"/>
      <use x="244.628906" xlink:href="#LiberationSans-83"/>
      <use x="311.328125" xlink:href="#LiberationSans-97"/>
      <use x="366.943359" xlink:href="#LiberationSans-109"/>
      <use x="450.244141" xlink:href="#LiberationSans-112"/>
      <use x="505.859375" xlink:href="#LiberationSans-108"/>
      <use x="528.076172" xlink:href="#LiberationSans-101"/>
      <use x="583.691406" xlink:href="#LiberationSans-115"/>
      <use x="633.691406" xlink:href="#LiberationSans-32"/>
      <use x="661.474609" xlink:href="#LiberationSans-111"/>
      <use x="717.089844" xlink:href="#LiberationSans-102"/>
      <use x="744.873047" xlink:href="#LiberationSans-32"/>
      <use x="770.90625" xlink:href="#LiberationSans-84"/>
      <use x="828.240234" xlink:href="#LiberationSans-114"/>
      <use x="861.541016" xlink:href="#LiberationSans-97"/>
      <use x="917.15625" xlink:href="#LiberationSans-105"/>
      <use x="939.373047" xlink:href="#LiberationSans-110"/>
      <use x="994.988281" xlink:href="#LiberationSans-32"/>
      <use x="1022.771484" xlink:href="#LiberationSans-68"/>
      <use x="1094.988281" xlink:href="#LiberationSans-97"/>
      <use x="1150.603516" xlink:href="#LiberationSans-116"/>
      <use x="1178.386719" xlink:href="#LiberationSans-97"/>
      <use x="1234.001953" xlink:href="#LiberationSans-115"/>
      <use x="1284.001953" xlink:href="#LiberationSans-101"/>
      <use x="1339.617188" xlink:href="#LiberationSans-116"/>
     </g>
    </g>
   </g>
   <g id="matplotlib.axis_2">
    <g id="ytick_1">
     <g id="line2d_39">
      <path clip-path="url(#pa3c2148993)" d="M 43.482813 227.514468 
L 378.282813 227.514468 
" style="fill:none;stroke:#ffffff;stroke-linecap:round;stroke-width:0.8;"/>
     </g>
     <g id="line2d_40"/>
     <g id="text_6">
      <!-- 0.70 -->
      <g style="fill:#262626;" transform="translate(20.521875 231.137905)scale(0.1 -0.1)">
       <defs>
        <path d="M 9.125 0 
L 9.125 10.6875 
L 18.65625 10.6875 
L 18.65625 0 
z
" id="LiberationSans-46"/>
        <path d="M 50.59375 61.671875 
Q 40.046875 45.5625 35.6875 36.421875 
Q 31.34375 27.296875 29.171875 18.40625 
Q 27 9.515625 27 0 
L 17.828125 0 
Q 17.828125 13.1875 23.40625 27.75 
Q 29 42.328125 42.09375 61.328125 
L 5.125 61.328125 
L 5.125 68.796875 
L 50.59375 68.796875 
z
" id="LiberationSans-55"/>
       </defs>
       <use xlink:href="#LiberationSans-48"/>
       <use x="55.615234" xlink:href="#LiberationSans-46"/>
       <use x="83.398438" xlink:href="#LiberationSans-55"/>
       <use x="139.013672" xlink:href="#LiberationSans-48"/>
      </g>
     </g>
    </g>
    <g id="ytick_2">
     <g id="line2d_41">
      <path clip-path="url(#pa3c2148993)" d="M 43.482813 197.225371 
L 378.282813 197.225371 
" style="fill:none;stroke:#ffffff;stroke-linecap:round;stroke-width:0.8;"/>
     </g>
     <g id="line2d_42"/>
     <g id="text_7">
      <!-- 0.75 -->
      <g style="fill:#262626;" transform="translate(20.521875 200.848808)scale(0.1 -0.1)">
       <use xlink:href="#LiberationSans-48"/>
       <use x="55.615234" xlink:href="#LiberationSans-46"/>
       <use x="83.398438" xlink:href="#LiberationSans-55"/>
       <use x="139.013672" xlink:href="#LiberationSans-53"/>
      </g>
     </g>
    </g>
    <g id="ytick_3">
     <g id="line2d_43">
      <path clip-path="url(#pa3c2148993)" d="M 43.482813 166.936274 
L 378.282813 166.936274 
" style="fill:none;stroke:#ffffff;stroke-linecap:round;stroke-width:0.8;"/>
     </g>
     <g id="line2d_44"/>
     <g id="text_8">
      <!-- 0.80 -->
      <g style="fill:#262626;" transform="translate(20.521875 170.559712)scale(0.1 -0.1)">
       <defs>
        <path d="M 51.265625 19.1875 
Q 51.265625 9.671875 45.203125 4.34375 
Q 39.15625 -0.984375 27.828125 -0.984375 
Q 16.796875 -0.984375 10.5625 4.234375 
Q 4.34375 9.46875 4.34375 19.09375 
Q 4.34375 25.828125 8.203125 30.421875 
Q 12.0625 35.015625 18.0625 35.984375 
L 18.0625 36.1875 
Q 12.453125 37.5 9.203125 41.890625 
Q 5.953125 46.296875 5.953125 52.203125 
Q 5.953125 60.0625 11.828125 64.9375 
Q 17.71875 69.828125 27.640625 69.828125 
Q 37.796875 69.828125 43.671875 65.03125 
Q 49.5625 60.25 49.5625 52.09375 
Q 49.5625 46.1875 46.28125 41.796875 
Q 43.015625 37.40625 37.359375 36.28125 
L 37.359375 36.078125 
Q 43.953125 35.015625 47.609375 30.5 
Q 51.265625 25.984375 51.265625 19.1875 
z
M 40.4375 51.609375 
Q 40.4375 63.28125 27.640625 63.28125 
Q 21.4375 63.28125 18.1875 60.34375 
Q 14.9375 57.421875 14.9375 51.609375 
Q 14.9375 45.703125 18.28125 42.59375 
Q 21.625 39.5 27.734375 39.5 
Q 33.9375 39.5 37.1875 42.359375 
Q 40.4375 45.21875 40.4375 51.609375 
z
M 42.140625 20.015625 
Q 42.140625 26.421875 38.328125 29.65625 
Q 34.515625 32.90625 27.640625 32.90625 
Q 20.953125 32.90625 17.1875 29.40625 
Q 13.421875 25.921875 13.421875 19.828125 
Q 13.421875 5.609375 27.9375 5.609375 
Q 35.109375 5.609375 38.625 9.046875 
Q 42.140625 12.5 42.140625 20.015625 
z
" id="LiberationSans-56"/>
       </defs>
       <use xlink:href="#LiberationSans-48"/>
       <use x="55.615234" xlink:href="#LiberationSans-46"/>
       <use x="83.398438" xlink:href="#LiberationSans-56"/>
       <use x="139.013672" xlink:href="#LiberationSans-48"/>
      </g>
     </g>
    </g>
    <g id="ytick_4">
     <g id="line2d_45">
      <path clip-path="url(#pa3c2148993)" d="M 43.482813 136.647177 
L 378.282813 136.647177 
" style="fill:none;stroke:#ffffff;stroke-linecap:round;stroke-width:0.8;"/>
     </g>
     <g id="line2d_46"/>
     <g id="text_9">
      <!-- 0.85 -->
      <g style="fill:#262626;" transform="translate(20.521875 140.270615)scale(0.1 -0.1)">
       <use xlink:href="#LiberationSans-48"/>
       <use x="55.615234" xlink:href="#LiberationSans-46"/>
       <use x="83.398438" xlink:href="#LiberationSans-56"/>
       <use x="139.013672" xlink:href="#LiberationSans-53"/>
      </g>
     </g>
    </g>
    <g id="ytick_5">
     <g id="line2d_47">
      <path clip-path="url(#pa3c2148993)" d="M 43.482813 106.35808 
L 378.282813 106.35808 
" style="fill:none;stroke:#ffffff;stroke-linecap:round;stroke-width:0.8;"/>
     </g>
     <g id="line2d_48"/>
     <g id="text_10">
      <!-- 0.90 -->
      <g style="fill:#262626;" transform="translate(20.521875 109.981518)scale(0.1 -0.1)">
       <defs>
        <path d="M 50.875 35.796875 
Q 50.875 18.0625 44.40625 8.53125 
Q 37.9375 -0.984375 25.984375 -0.984375 
Q 17.921875 -0.984375 13.0625 2.40625 
Q 8.203125 5.8125 6.109375 13.375 
L 14.5 14.703125 
Q 17.140625 6.109375 26.125 6.109375 
Q 33.6875 6.109375 37.84375 13.140625 
Q 42 20.171875 42.1875 33.203125 
Q 40.234375 28.8125 35.5 26.140625 
Q 30.765625 23.484375 25.09375 23.484375 
Q 15.828125 23.484375 10.25 29.828125 
Q 4.6875 36.1875 4.6875 46.6875 
Q 4.6875 57.46875 10.734375 63.640625 
Q 16.796875 69.828125 27.59375 69.828125 
Q 39.0625 69.828125 44.96875 61.328125 
Q 50.875 52.828125 50.875 35.796875 
z
M 41.3125 44.28125 
Q 41.3125 52.59375 37.5 57.640625 
Q 33.6875 62.703125 27.296875 62.703125 
Q 20.953125 62.703125 17.28125 58.375 
Q 13.625 54.046875 13.625 46.6875 
Q 13.625 39.15625 17.28125 34.78125 
Q 20.953125 30.421875 27.203125 30.421875 
Q 31 30.421875 34.265625 32.15625 
Q 37.546875 33.890625 39.421875 37.0625 
Q 41.3125 40.234375 41.3125 44.28125 
z
" id="LiberationSans-57"/>
       </defs>
       <use xlink:href="#LiberationSans-48"/>
       <use x="55.615234" xlink:href="#LiberationSans-46"/>
       <use x="83.398438" xlink:href="#LiberationSans-57"/>
       <use x="139.013672" xlink:href="#LiberationSans-48"/>
      </g>
     </g>
    </g>
    <g id="ytick_6">
     <g id="line2d_49">
      <path clip-path="url(#pa3c2148993)" d="M 43.482813 76.068983 
L 378.282813 76.068983 
" style="fill:none;stroke:#ffffff;stroke-linecap:round;stroke-width:0.8;"/>
     </g>
     <g id="line2d_50"/>
     <g id="text_11">
      <!-- 0.95 -->
      <g style="fill:#262626;" transform="translate(20.521875 79.692421)scale(0.1 -0.1)">
       <use xlink:href="#LiberationSans-48"/>
       <use x="55.615234" xlink:href="#LiberationSans-46"/>
       <use x="83.398438" xlink:href="#LiberationSans-57"/>
       <use x="139.013672" xlink:href="#LiberationSans-53"/>
      </g>
     </g>
    </g>
    <g id="ytick_7">
     <g id="line2d_51">
      <path clip-path="url(#pa3c2148993)" d="M 43.482813 45.779886 
L 378.282813 45.779886 
" style="fill:none;stroke:#ffffff;stroke-linecap:round;stroke-width:0.8;"/>
     </g>
     <g id="line2d_52"/>
     <g id="text_12">
      <!-- 1.00 -->
      <g style="fill:#262626;" transform="translate(20.521875 49.403324)scale(0.1 -0.1)">
       <use xlink:href="#LiberationSans-49"/>
       <use x="55.615234" xlink:href="#LiberationSans-46"/>
       <use x="83.398438" xlink:href="#LiberationSans-48"/>
       <use x="139.013672" xlink:href="#LiberationSans-48"/>
      </g>
     </g>
    </g>
    <g id="text_13">
     <!-- ACC -->
     <g style="fill:#262626;" transform="translate(14.446875 155.173281)rotate(-90)scale(0.1 -0.1)">
      <defs>
       <path d="M 56.984375 0 
L 49.125 20.125 
L 17.78125 20.125 
L 9.859375 0 
L 0.203125 0 
L 28.265625 68.796875 
L 38.875 68.796875 
L 66.5 0 
z
M 33.453125 61.765625 
L 33.015625 60.40625 
Q 31.78125 56.34375 29.390625 50 
L 20.609375 27.390625 
L 46.34375 27.390625 
L 37.5 50.09375 
Q 36.140625 53.46875 34.765625 57.71875 
z
" id="LiberationSans-65"/>
       <path d="M 38.671875 62.203125 
Q 27.25 62.203125 20.890625 54.859375 
Q 14.546875 47.515625 14.546875 34.71875 
Q 14.546875 22.078125 21.15625 14.375 
Q 27.78125 6.6875 39.0625 6.6875 
Q 53.515625 6.6875 60.796875 21 
L 68.40625 17.1875 
Q 64.15625 8.296875 56.46875 3.65625 
Q 48.78125 -0.984375 38.625 -0.984375 
Q 28.21875 -0.984375 20.625 3.34375 
Q 13.03125 7.671875 9.046875 15.703125 
Q 5.078125 23.734375 5.078125 34.71875 
Q 5.078125 51.171875 13.96875 60.5 
Q 22.859375 69.828125 38.578125 69.828125 
Q 49.5625 69.828125 56.9375 65.53125 
Q 64.3125 61.234375 67.78125 52.78125 
L 58.9375 49.859375 
Q 56.546875 55.859375 51.25 59.03125 
Q 45.953125 62.203125 38.671875 62.203125 
z
" id="LiberationSans-67"/>
      </defs>
      <use xlink:href="#LiberationSans-65"/>
      <use x="66.699219" xlink:href="#LiberationSans-67"/>
      <use x="138.916016" xlink:href="#LiberationSans-67"/>
     </g>
    </g>
   </g>
   <g id="line2d_53">
    <path clip-path="url(#pa3c2148993)" d="M 269.463516 79.033117 
L 306.711144 45.779886 
L 334.887887 51.564519 
L 351.370226 47.63854 
L 363.064631 45.785412 
" style="fill:none;stroke:#ff0000;stroke-linecap:round;stroke-opacity:0.9;"/>
    <defs>
     <path d="M -3 3 
L 3 -3 
M -3 -3 
L 3 3 
" id="m1fb716546d" style="stroke:#ff0000;stroke-opacity:0.9;"/>
    </defs>
    <g clip-path="url(#pa3c2148993)">
     <use style="fill:#ff0000;fill-opacity:0.9;stroke:#ff0000;stroke-opacity:0.9;" x="269.463516" xlink:href="#m1fb716546d" y="79.033117"/>
     <use style="fill:#ff0000;fill-opacity:0.9;stroke:#ff0000;stroke-opacity:0.9;" x="306.711144" xlink:href="#m1fb716546d" y="45.779886"/>
     <use style="fill:#ff0000;fill-opacity:0.9;stroke:#ff0000;stroke-opacity:0.9;" x="334.887887" xlink:href="#m1fb716546d" y="51.564519"/>
     <use style="fill:#ff0000;fill-opacity:0.9;stroke:#ff0000;stroke-opacity:0.9;" x="351.370226" xlink:href="#m1fb716546d" y="47.63854"/>
     <use style="fill:#ff0000;fill-opacity:0.9;stroke:#ff0000;stroke-opacity:0.9;" x="363.064631" xlink:href="#m1fb716546d" y="45.785412"/>
    </g>
   </g>
   <g id="line2d_54">
    <path clip-path="url(#pa3c2148993)" d="M 146.278298 52.629074 
L 183.525927 45.779886 
L 211.70267 47.948702 
L 228.185008 46.066953 
L 239.879414 45.779886 
" style="fill:none;stroke:#008000;stroke-linecap:round;stroke-opacity:0.9;"/>
    <defs>
     <path d="M -3 3 
L 3 -3 
M -3 -3 
L 3 3 
" id="m86a720121f" style="stroke:#008000;stroke-opacity:0.9;"/>
    </defs>
    <g clip-path="url(#pa3c2148993)">
     <use style="fill:#008000;fill-opacity:0.9;stroke:#008000;stroke-opacity:0.9;" x="146.278298" xlink:href="#m86a720121f" y="52.629074"/>
     <use style="fill:#008000;fill-opacity:0.9;stroke:#008000;stroke-opacity:0.9;" x="183.525927" xlink:href="#m86a720121f" y="45.779886"/>
     <use style="fill:#008000;fill-opacity:0.9;stroke:#008000;stroke-opacity:0.9;" x="211.70267" xlink:href="#m86a720121f" y="47.948702"/>
     <use style="fill:#008000;fill-opacity:0.9;stroke:#008000;stroke-opacity:0.9;" x="228.185008" xlink:href="#m86a720121f" y="46.066953"/>
     <use style="fill:#008000;fill-opacity:0.9;stroke:#008000;stroke-opacity:0.9;" x="239.879414" xlink:href="#m86a720121f" y="45.779886"/>
    </g>
   </g>
   <g id="line2d_55">
    <path clip-path="url(#pa3c2148993)" d="M 266.217527 53.508971 
L 303.465156 48.771803 
L 331.641899 46.350905 
L 348.124237 45.779886 
L 359.818643 45.779886 
" style="fill:none;stroke:#0000ff;stroke-linecap:round;stroke-opacity:0.9;"/>
    <defs>
     <path d="M -3 3 
L 3 -3 
M -3 -3 
L 3 3 
" id="m77e33a0c51" style="stroke:#0000ff;stroke-opacity:0.9;"/>
    </defs>
    <g clip-path="url(#pa3c2148993)">
     <use style="fill:#0000ff;fill-opacity:0.9;stroke:#0000ff;stroke-opacity:0.9;" x="266.217527" xlink:href="#m77e33a0c51" y="53.508971"/>
     <use style="fill:#0000ff;fill-opacity:0.9;stroke:#0000ff;stroke-opacity:0.9;" x="303.465156" xlink:href="#m77e33a0c51" y="48.771803"/>
     <use style="fill:#0000ff;fill-opacity:0.9;stroke:#0000ff;stroke-opacity:0.9;" x="331.641899" xlink:href="#m77e33a0c51" y="46.350905"/>
     <use style="fill:#0000ff;fill-opacity:0.9;stroke:#0000ff;stroke-opacity:0.9;" x="348.124237" xlink:href="#m77e33a0c51" y="45.779886"/>
     <use style="fill:#0000ff;fill-opacity:0.9;stroke:#0000ff;stroke-opacity:0.9;" x="359.818643" xlink:href="#m77e33a0c51" y="45.779886"/>
    </g>
   </g>
   <g id="line2d_56">
    <path clip-path="url(#pa3c2148993)" d="M 260.645395 243.452614 
L 297.893023 214.766933 
L 326.069766 192.393321 
L 342.552105 177.125696 
L 354.24651 173.009965 
" style="fill:none;stroke:#ffff00;stroke-linecap:round;stroke-opacity:0.9;"/>
    <defs>
     <path d="M -3 3 
L 3 -3 
M -3 -3 
L 3 3 
" id="mae49d0f07a" style="stroke:#ffff00;stroke-opacity:0.9;"/>
    </defs>
    <g clip-path="url(#pa3c2148993)">
     <use style="fill:#ffff00;fill-opacity:0.9;stroke:#ffff00;stroke-opacity:0.9;" x="260.645395" xlink:href="#mae49d0f07a" y="243.452614"/>
     <use style="fill:#ffff00;fill-opacity:0.9;stroke:#ffff00;stroke-opacity:0.9;" x="297.893023" xlink:href="#mae49d0f07a" y="214.766933"/>
     <use style="fill:#ffff00;fill-opacity:0.9;stroke:#ffff00;stroke-opacity:0.9;" x="326.069766" xlink:href="#mae49d0f07a" y="192.393321"/>
     <use style="fill:#ffff00;fill-opacity:0.9;stroke:#ffff00;stroke-opacity:0.9;" x="342.552105" xlink:href="#mae49d0f07a" y="177.125696"/>
     <use style="fill:#ffff00;fill-opacity:0.9;stroke:#ffff00;stroke-opacity:0.9;" x="354.24651" xlink:href="#mae49d0f07a" y="173.009965"/>
    </g>
   </g>
   <g id="line2d_57">
    <path clip-path="url(#pa3c2148993)" d="M 86.428557 179.107847 
L 123.676185 166.972387 
L 151.852929 165.110218 
L 168.335267 79.870701 
L 180.029672 45.779886 
" style="fill:none;stroke:#7fffd4;stroke-linecap:round;stroke-opacity:0.9;"/>
    <defs>
     <path d="M -3 3 
L 3 -3 
M -3 -3 
L 3 3 
" id="m051f532033" style="stroke:#7fffd4;stroke-opacity:0.9;"/>
    </defs>
    <g clip-path="url(#pa3c2148993)">
     <use style="fill:#7fffd4;fill-opacity:0.9;stroke:#7fffd4;stroke-opacity:0.9;" x="86.428557" xlink:href="#m051f532033" y="179.107847"/>
     <use style="fill:#7fffd4;fill-opacity:0.9;stroke:#7fffd4;stroke-opacity:0.9;" x="123.676185" xlink:href="#m051f532033" y="166.972387"/>
     <use style="fill:#7fffd4;fill-opacity:0.9;stroke:#7fffd4;stroke-opacity:0.9;" x="151.852929" xlink:href="#m051f532033" y="165.110218"/>
     <use style="fill:#7fffd4;fill-opacity:0.9;stroke:#7fffd4;stroke-opacity:0.9;" x="168.335267" xlink:href="#m051f532033" y="79.870701"/>
     <use style="fill:#7fffd4;fill-opacity:0.9;stroke:#7fffd4;stroke-opacity:0.9;" x="180.029672" xlink:href="#m051f532033" y="45.779886"/>
    </g>
   </g>
   <g id="line2d_58">
    <path clip-path="url(#pa3c2148993)" d="M 162.442805 133.4365 
L 199.690434 97.367952 
L 227.867177 80.961058 
L 244.349515 69.964379 
L 256.04392 62.304713 
" style="fill:none;stroke:#808080;stroke-linecap:round;stroke-opacity:0.9;"/>
    <defs>
     <path d="M -3 3 
L 3 -3 
M -3 -3 
L 3 3 
" id="m01666de8a4" style="stroke:#808080;stroke-opacity:0.9;"/>
    </defs>
    <g clip-path="url(#pa3c2148993)">
     <use style="fill:#808080;fill-opacity:0.9;stroke:#808080;stroke-opacity:0.9;" x="162.442805" xlink:href="#m01666de8a4" y="133.4365"/>
     <use style="fill:#808080;fill-opacity:0.9;stroke:#808080;stroke-opacity:0.9;" x="199.690434" xlink:href="#m01666de8a4" y="97.367952"/>
     <use style="fill:#808080;fill-opacity:0.9;stroke:#808080;stroke-opacity:0.9;" x="227.867177" xlink:href="#m01666de8a4" y="80.961058"/>
     <use style="fill:#808080;fill-opacity:0.9;stroke:#808080;stroke-opacity:0.9;" x="244.349515" xlink:href="#m01666de8a4" y="69.964379"/>
     <use style="fill:#808080;fill-opacity:0.9;stroke:#808080;stroke-opacity:0.9;" x="256.04392" xlink:href="#m01666de8a4" y="62.304713"/>
    </g>
   </g>
   <g id="line2d_59">
    <path clip-path="url(#pa3c2148993)" d="M 58.700994 233.153879 
L 95.948623 130.551258 
L 124.125366 45.779886 
L 140.607704 55.362444 
L 152.302109 45.779886 
" style="fill:none;stroke:#9400d3;stroke-linecap:round;stroke-opacity:0.9;"/>
    <defs>
     <path d="M -3 3 
L 3 -3 
M -3 -3 
L 3 3 
" id="m7b13ac6d15" style="stroke:#9400d3;stroke-opacity:0.9;"/>
    </defs>
    <g clip-path="url(#pa3c2148993)">
     <use style="fill:#9400d3;fill-opacity:0.9;stroke:#9400d3;stroke-opacity:0.9;" x="58.700994" xlink:href="#m7b13ac6d15" y="233.153879"/>
     <use style="fill:#9400d3;fill-opacity:0.9;stroke:#9400d3;stroke-opacity:0.9;" x="95.948623" xlink:href="#m7b13ac6d15" y="130.551258"/>
     <use style="fill:#9400d3;fill-opacity:0.9;stroke:#9400d3;stroke-opacity:0.9;" x="124.125366" xlink:href="#m7b13ac6d15" y="45.779886"/>
     <use style="fill:#9400d3;fill-opacity:0.9;stroke:#9400d3;stroke-opacity:0.9;" x="140.607704" xlink:href="#m7b13ac6d15" y="55.362444"/>
     <use style="fill:#9400d3;fill-opacity:0.9;stroke:#9400d3;stroke-opacity:0.9;" x="152.302109" xlink:href="#m7b13ac6d15" y="45.779886"/>
    </g>
   </g>
   <g id="line2d_60">
    <path clip-path="url(#pa3c2148993)" d="M 187.566396 53.298524 
L 224.814025 47.412263 
L 252.990768 46.230717 
L 269.473106 45.878864 
L 281.167511 45.78116 
" style="fill:none;stroke:#ffa500;stroke-linecap:round;stroke-opacity:0.9;"/>
    <defs>
     <path d="M -3 3 
L 3 -3 
M -3 -3 
L 3 3 
" id="m20f738d81d" style="stroke:#ffa500;stroke-opacity:0.9;"/>
    </defs>
    <g clip-path="url(#pa3c2148993)">
     <use style="fill:#ffa500;fill-opacity:0.9;stroke:#ffa500;stroke-opacity:0.9;" x="187.566396" xlink:href="#m20f738d81d" y="53.298524"/>
     <use style="fill:#ffa500;fill-opacity:0.9;stroke:#ffa500;stroke-opacity:0.9;" x="224.814025" xlink:href="#m20f738d81d" y="47.412263"/>
     <use style="fill:#ffa500;fill-opacity:0.9;stroke:#ffa500;stroke-opacity:0.9;" x="252.990768" xlink:href="#m20f738d81d" y="46.230717"/>
     <use style="fill:#ffa500;fill-opacity:0.9;stroke:#ffa500;stroke-opacity:0.9;" x="269.473106" xlink:href="#m20f738d81d" y="45.878864"/>
     <use style="fill:#ffa500;fill-opacity:0.9;stroke:#ffa500;stroke-opacity:0.9;" x="281.167511" xlink:href="#m20f738d81d" y="45.78116"/>
    </g>
   </g>
   <g id="line2d_61">
    <path clip-path="url(#pa3c2148993)" d="M 190.404328 62.937934 
L 227.651956 53.219723 
L 255.828699 51.224244 
L 272.311038 48.83599 
L 284.005443 47.187526 
" style="fill:none;stroke:#ffc0cb;stroke-linecap:round;stroke-opacity:0.9;"/>
    <defs>
     <path d="M -3 3 
L 3 -3 
M -3 -3 
L 3 3 
" id="m33fbe0f193" style="stroke:#ffc0cb;stroke-opacity:0.9;"/>
    </defs>
    <g clip-path="url(#pa3c2148993)">
     <use style="fill:#ffc0cb;fill-opacity:0.9;stroke:#ffc0cb;stroke-opacity:0.9;" x="190.404328" xlink:href="#m33fbe0f193" y="62.937934"/>
     <use style="fill:#ffc0cb;fill-opacity:0.9;stroke:#ffc0cb;stroke-opacity:0.9;" x="227.651956" xlink:href="#m33fbe0f193" y="53.219723"/>
     <use style="fill:#ffc0cb;fill-opacity:0.9;stroke:#ffc0cb;stroke-opacity:0.9;" x="255.828699" xlink:href="#m33fbe0f193" y="51.224244"/>
     <use style="fill:#ffc0cb;fill-opacity:0.9;stroke:#ffc0cb;stroke-opacity:0.9;" x="272.311038" xlink:href="#m33fbe0f193" y="48.83599"/>
     <use style="fill:#ffc0cb;fill-opacity:0.9;stroke:#ffc0cb;stroke-opacity:0.9;" x="284.005443" xlink:href="#m33fbe0f193" y="47.187526"/>
    </g>
   </g>
   <g id="line2d_62">
    <path clip-path="url(#pa3c2148993)" d="M 227.336966 47.357613 
L 264.584595 46.128523 
L 292.761338 45.809401 
L 309.243677 45.782875 
L 320.938082 45.77993 
" style="fill:none;stroke:#808000;stroke-linecap:round;stroke-opacity:0.9;"/>
    <defs>
     <path d="M -3 3 
L 3 -3 
M -3 -3 
L 3 3 
" id="mfc51a15b71" style="stroke:#808000;stroke-opacity:0.9;"/>
    </defs>
    <g clip-path="url(#pa3c2148993)">
     <use style="fill:#808000;fill-opacity:0.9;stroke:#808000;stroke-opacity:0.9;" x="227.336966" xlink:href="#mfc51a15b71" y="47.357613"/>
     <use style="fill:#808000;fill-opacity:0.9;stroke:#808000;stroke-opacity:0.9;" x="264.584595" xlink:href="#mfc51a15b71" y="46.128523"/>
     <use style="fill:#808000;fill-opacity:0.9;stroke:#808000;stroke-opacity:0.9;" x="292.761338" xlink:href="#mfc51a15b71" y="45.809401"/>
     <use style="fill:#808000;fill-opacity:0.9;stroke:#808000;stroke-opacity:0.9;" x="309.243677" xlink:href="#mfc51a15b71" y="45.782875"/>
     <use style="fill:#808000;fill-opacity:0.9;stroke:#808000;stroke-opacity:0.9;" x="320.938082" xlink:href="#mfc51a15b71" y="45.77993"/>
    </g>
   </g>
   <g id="patch_3">
    <path d="M 43.482813 253.33625 
L 43.482813 35.89625 
" style="fill:none;"/>
   </g>
   <g id="patch_4">
    <path d="M 378.282813 253.33625 
L 378.282813 35.89625 
" style="fill:none;"/>
   </g>
   <g id="patch_5">
    <path d="M 43.482813 253.33625 
L 378.282813 253.33625 
" style="fill:none;"/>
   </g>
   <g id="patch_6">
    <path d="M 43.482813 35.89625 
L 378.282813 35.89625 
" style="fill:none;"/>
   </g>
   <g id="text_14">
    <!-- ACC Results of Training Data with ResNet18 -->
    <g style="fill:#ffa500;" transform="translate(43.482813 15.89625)scale(0.12 -0.12)">
     <defs>
      <path d="M 56.84375 0 
L 38.96875 28.5625 
L 17.53125 28.5625 
L 17.53125 0 
L 8.203125 0 
L 8.203125 68.796875 
L 40.578125 68.796875 
Q 52.203125 68.796875 58.515625 63.59375 
Q 64.84375 58.40625 64.84375 49.125 
Q 64.84375 41.453125 60.375 36.21875 
Q 55.90625 31 48.046875 29.640625 
L 67.578125 0 
z
M 55.46875 49.03125 
Q 55.46875 55.03125 51.390625 58.171875 
Q 47.3125 61.328125 39.65625 61.328125 
L 17.53125 61.328125 
L 17.53125 35.9375 
L 40.046875 35.9375 
Q 47.40625 35.9375 51.4375 39.375 
Q 55.46875 42.828125 55.46875 49.03125 
z
" id="LiberationSans-82"/>
      <path d="M 26.765625 -20.75 
Q 18.109375 -20.75 12.984375 -17.359375 
Q 7.859375 -13.96875 6.390625 -7.71875 
L 15.234375 -6.453125 
Q 16.109375 -10.109375 19.109375 -12.078125 
Q 22.125 -14.0625 27 -14.0625 
Q 40.140625 -14.0625 40.140625 1.3125 
L 40.140625 9.8125 
L 40.046875 9.8125 
Q 37.546875 4.734375 33.203125 2.171875 
Q 28.859375 -0.390625 23.046875 -0.390625 
Q 13.328125 -0.390625 8.765625 6.046875 
Q 4.203125 12.5 4.203125 26.3125 
Q 4.203125 40.328125 9.109375 46.984375 
Q 14.015625 53.65625 24.03125 53.65625 
Q 29.640625 53.65625 33.765625 51.09375 
Q 37.890625 48.53125 40.140625 43.796875 
L 40.234375 43.796875 
Q 40.234375 45.265625 40.421875 48.875 
Q 40.625 52.484375 40.828125 52.828125 
L 49.171875 52.828125 
Q 48.875 50.203125 48.875 41.890625 
L 48.875 1.515625 
Q 48.875 -20.75 26.765625 -20.75 
z
M 40.140625 26.421875 
Q 40.140625 32.859375 38.375 37.515625 
Q 36.625 42.1875 33.421875 44.65625 
Q 30.21875 47.125 26.171875 47.125 
Q 19.4375 47.125 16.359375 42.234375 
Q 13.28125 37.359375 13.28125 26.421875 
Q 13.28125 15.578125 16.15625 10.84375 
Q 19.046875 6.109375 26.03125 6.109375 
Q 30.171875 6.109375 33.390625 8.546875 
Q 36.625 10.984375 38.375 15.546875 
Q 40.140625 20.125 40.140625 26.421875 
z
" id="LiberationSans-103"/>
      <path d="M 57.328125 0 
L 47.125 0 
L 37.890625 37.359375 
L 36.140625 45.609375 
Q 35.6875 43.40625 34.765625 39.28125 
Q 33.84375 35.15625 24.8125 0 
L 14.65625 0 
L -0.140625 52.828125 
L 8.546875 52.828125 
L 17.484375 16.9375 
Q 17.828125 15.765625 19.578125 7.28125 
L 20.40625 10.890625 
L 31.453125 52.828125 
L 40.875 52.828125 
L 50.09375 16.546875 
L 52.34375 7.28125 
L 53.859375 14.0625 
L 63.875 52.828125 
L 72.46875 52.828125 
z
" id="LiberationSans-119"/>
      <path d="M 15.484375 43.796875 
Q 18.3125 48.96875 22.28125 51.390625 
Q 26.265625 53.8125 32.375 53.8125 
Q 40.96875 53.8125 45.046875 49.53125 
Q 49.125 45.265625 49.125 35.203125 
L 49.125 0 
L 40.28125 0 
L 40.28125 33.5 
Q 40.28125 39.0625 39.25 41.765625 
Q 38.234375 44.484375 35.890625 45.75 
Q 33.546875 47.015625 29.390625 47.015625 
Q 23.1875 47.015625 19.453125 42.71875 
Q 15.71875 38.421875 15.71875 31.15625 
L 15.71875 0 
L 6.9375 0 
L 6.9375 72.46875 
L 15.71875 72.46875 
L 15.71875 53.609375 
Q 15.71875 50.640625 15.546875 47.453125 
Q 15.375 44.28125 15.328125 43.796875 
z
" id="LiberationSans-104"/>
      <path d="M 52.828125 0 
L 16.015625 58.59375 
L 16.265625 53.859375 
L 16.5 45.703125 
L 16.5 0 
L 8.203125 0 
L 8.203125 68.796875 
L 19.046875 68.796875 
L 56.25 9.8125 
Q 55.671875 19.390625 55.671875 23.6875 
L 55.671875 68.796875 
L 64.0625 68.796875 
L 64.0625 0 
z
" id="LiberationSans-78"/>
     </defs>
     <use xlink:href="#LiberationSans-65"/>
     <use x="66.699219" xlink:href="#LiberationSans-67"/>
     <use x="138.916016" xlink:href="#LiberationSans-67"/>
     <use x="211.132812" xlink:href="#LiberationSans-32"/>
     <use x="238.916016" xlink:href="#LiberationSans-82"/>
     <use x="311.132812" xlink:href="#LiberationSans-101"/>
     <use x="366.748047" xlink:href="#LiberationSans-115"/>
     <use x="416.748047" xlink:href="#LiberationSans-117"/>
     <use x="472.363281" xlink:href="#LiberationSans-108"/>
     <use x="494.580078" xlink:href="#LiberationSans-116"/>
     <use x="522.363281" xlink:href="#LiberationSans-115"/>
     <use x="572.363281" xlink:href="#LiberationSans-32"/>
     <use x="600.146484" xlink:href="#LiberationSans-111"/>
     <use x="655.761719" xlink:href="#LiberationSans-102"/>
     <use x="683.544922" xlink:href="#LiberationSans-32"/>
     <use x="709.578125" xlink:href="#LiberationSans-84"/>
     <use x="766.912109" xlink:href="#LiberationSans-114"/>
     <use x="800.212891" xlink:href="#LiberationSans-97"/>
     <use x="855.828125" xlink:href="#LiberationSans-105"/>
     <use x="878.044922" xlink:href="#LiberationSans-110"/>
     <use x="933.660156" xlink:href="#LiberationSans-105"/>
     <use x="955.876953" xlink:href="#LiberationSans-110"/>
     <use x="1011.492188" xlink:href="#LiberationSans-103"/>
     <use x="1067.107422" xlink:href="#LiberationSans-32"/>
     <use x="1094.890625" xlink:href="#LiberationSans-68"/>
     <use x="1167.107422" xlink:href="#LiberationSans-97"/>
     <use x="1222.722656" xlink:href="#LiberationSans-116"/>
     <use x="1250.505859" xlink:href="#LiberationSans-97"/>
     <use x="1306.121094" xlink:href="#LiberationSans-32"/>
     <use x="1333.904297" xlink:href="#LiberationSans-119"/>
     <use x="1406.121094" xlink:href="#LiberationSans-105"/>
     <use x="1428.337891" xlink:href="#LiberationSans-116"/>
     <use x="1456.121094" xlink:href="#LiberationSans-104"/>
     <use x="1511.736328" xlink:href="#LiberationSans-32"/>
     <use x="1539.519531" xlink:href="#LiberationSans-82"/>
     <use x="1611.736328" xlink:href="#LiberationSans-101"/>
     <use x="1667.351562" xlink:href="#LiberationSans-115"/>
     <use x="1717.351562" xlink:href="#LiberationSans-78"/>
     <use x="1789.568359" xlink:href="#LiberationSans-101"/>
     <use x="1845.183594" xlink:href="#LiberationSans-116"/>
     <use x="1872.966797" xlink:href="#LiberationSans-49"/>
     <use x="1928.582031" xlink:href="#LiberationSans-56"/>
    </g>
   </g>
   <g id="legend_1">
    <g id="line2d_63">
     <path d="M 404.022813 48.643125 
L 424.022813 48.643125 
" style="fill:none;stroke:#ff0000;stroke-linecap:round;stroke-opacity:0.9;"/>
    </g>
    <g id="line2d_64">
     <g>
      <use style="fill:#ff0000;fill-opacity:0.9;stroke:#ff0000;stroke-opacity:0.9;" x="414.022813" xlink:href="#m1fb716546d" y="48.643125"/>
     </g>
    </g>
    <g id="text_15">
     <!-- octmnist -->
     <g style="fill:#262626;" transform="translate(432.022813 52.143125)scale(0.1 -0.1)">
      <defs>
       <path d="M 13.421875 26.65625 
Q 13.421875 16.109375 16.734375 11.03125 
Q 20.0625 5.953125 26.765625 5.953125 
Q 31.453125 5.953125 34.59375 8.484375 
Q 37.75 11.03125 38.484375 16.3125 
L 47.359375 15.71875 
Q 46.34375 8.109375 40.875 3.5625 
Q 35.40625 -0.984375 27 -0.984375 
Q 15.921875 -0.984375 10.078125 6.015625 
Q 4.25 13.03125 4.25 26.46875 
Q 4.25 39.796875 10.109375 46.796875 
Q 15.96875 53.8125 26.90625 53.8125 
Q 35.015625 53.8125 40.359375 49.609375 
Q 45.703125 45.40625 47.078125 38.03125 
L 38.03125 37.359375 
Q 37.359375 41.75 34.5625 44.328125 
Q 31.78125 46.921875 26.65625 46.921875 
Q 19.671875 46.921875 16.546875 42.28125 
Q 13.421875 37.640625 13.421875 26.65625 
z
" id="LiberationSans-99"/>
      </defs>
      <use xlink:href="#LiberationSans-111"/>
      <use x="55.615234" xlink:href="#LiberationSans-99"/>
      <use x="105.615234" xlink:href="#LiberationSans-116"/>
      <use x="133.398438" xlink:href="#LiberationSans-109"/>
      <use x="216.699219" xlink:href="#LiberationSans-110"/>
      <use x="272.314453" xlink:href="#LiberationSans-105"/>
      <use x="294.53125" xlink:href="#LiberationSans-115"/>
      <use x="344.53125" xlink:href="#LiberationSans-116"/>
     </g>
    </g>
    <g id="line2d_65">
     <path d="M 404.022813 62.965 
L 424.022813 62.965 
" style="fill:none;stroke:#008000;stroke-linecap:round;stroke-opacity:0.9;"/>
    </g>
    <g id="line2d_66">
     <g>
      <use style="fill:#008000;fill-opacity:0.9;stroke:#008000;stroke-opacity:0.9;" x="414.022813" xlink:href="#m86a720121f" y="62.965"/>
     </g>
    </g>
    <g id="text_16">
     <!-- pneumoniamnist -->
     <g style="fill:#262626;" transform="translate(432.022813 66.465)scale(0.1 -0.1)">
      <use xlink:href="#LiberationSans-112"/>
      <use x="55.615234" xlink:href="#LiberationSans-110"/>
      <use x="111.230469" xlink:href="#LiberationSans-101"/>
      <use x="166.845703" xlink:href="#LiberationSans-117"/>
      <use x="222.460938" xlink:href="#LiberationSans-109"/>
      <use x="305.761719" xlink:href="#LiberationSans-111"/>
      <use x="361.376953" xlink:href="#LiberationSans-110"/>
      <use x="416.992188" xlink:href="#LiberationSans-105"/>
      <use x="439.208984" xlink:href="#LiberationSans-97"/>
      <use x="494.824219" xlink:href="#LiberationSans-109"/>
      <use x="578.125" xlink:href="#LiberationSans-110"/>
      <use x="633.740234" xlink:href="#LiberationSans-105"/>
      <use x="655.957031" xlink:href="#LiberationSans-115"/>
      <use x="705.957031" xlink:href="#LiberationSans-116"/>
     </g>
    </g>
    <g id="line2d_67">
     <path d="M 404.022813 77.286875 
L 424.022813 77.286875 
" style="fill:none;stroke:#0000ff;stroke-linecap:round;stroke-opacity:0.9;"/>
    </g>
    <g id="line2d_68">
     <g>
      <use style="fill:#0000ff;fill-opacity:0.9;stroke:#0000ff;stroke-opacity:0.9;" x="414.022813" xlink:href="#m77e33a0c51" y="77.286875"/>
     </g>
    </g>
    <g id="text_17">
     <!-- pathmnist -->
     <g style="fill:#262626;" transform="translate(432.022813 80.786875)scale(0.1 -0.1)">
      <use xlink:href="#LiberationSans-112"/>
      <use x="55.615234" xlink:href="#LiberationSans-97"/>
      <use x="111.230469" xlink:href="#LiberationSans-116"/>
      <use x="139.013672" xlink:href="#LiberationSans-104"/>
      <use x="194.628906" xlink:href="#LiberationSans-109"/>
      <use x="277.929688" xlink:href="#LiberationSans-110"/>
      <use x="333.544922" xlink:href="#LiberationSans-105"/>
      <use x="355.761719" xlink:href="#LiberationSans-115"/>
      <use x="405.761719" xlink:href="#LiberationSans-116"/>
     </g>
    </g>
    <g id="line2d_69">
     <path d="M 404.022813 91.60875 
L 424.022813 91.60875 
" style="fill:none;stroke:#ffff00;stroke-linecap:round;stroke-opacity:0.9;"/>
    </g>
    <g id="line2d_70">
     <g>
      <use style="fill:#ffff00;fill-opacity:0.9;stroke:#ffff00;stroke-opacity:0.9;" x="414.022813" xlink:href="#mae49d0f07a" y="91.60875"/>
     </g>
    </g>
    <g id="text_18">
     <!-- chestmnist -->
     <g style="fill:#262626;" transform="translate(432.022813 95.10875)scale(0.1 -0.1)">
      <use xlink:href="#LiberationSans-99"/>
      <use x="50" xlink:href="#LiberationSans-104"/>
      <use x="105.615234" xlink:href="#LiberationSans-101"/>
      <use x="161.230469" xlink:href="#LiberationSans-115"/>
      <use x="211.230469" xlink:href="#LiberationSans-116"/>
      <use x="239.013672" xlink:href="#LiberationSans-109"/>
      <use x="322.314453" xlink:href="#LiberationSans-110"/>
      <use x="377.929688" xlink:href="#LiberationSans-105"/>
      <use x="400.146484" xlink:href="#LiberationSans-115"/>
      <use x="450.146484" xlink:href="#LiberationSans-116"/>
     </g>
    </g>
    <g id="line2d_71">
     <path d="M 404.022813 105.930625 
L 424.022813 105.930625 
" style="fill:none;stroke:#7fffd4;stroke-linecap:round;stroke-opacity:0.9;"/>
    </g>
    <g id="line2d_72">
     <g>
      <use style="fill:#7fffd4;fill-opacity:0.9;stroke:#7fffd4;stroke-opacity:0.9;" x="414.022813" xlink:href="#m051f532033" y="105.930625"/>
     </g>
    </g>
    <g id="text_19">
     <!-- retinamnist -->
     <g style="fill:#262626;" transform="translate(432.022813 109.430625)scale(0.1 -0.1)">
      <use xlink:href="#LiberationSans-114"/>
      <use x="33.300781" xlink:href="#LiberationSans-101"/>
      <use x="88.916016" xlink:href="#LiberationSans-116"/>
      <use x="116.699219" xlink:href="#LiberationSans-105"/>
      <use x="138.916016" xlink:href="#LiberationSans-110"/>
      <use x="194.53125" xlink:href="#LiberationSans-97"/>
      <use x="250.146484" xlink:href="#LiberationSans-109"/>
      <use x="333.447266" xlink:href="#LiberationSans-110"/>
      <use x="389.0625" xlink:href="#LiberationSans-105"/>
      <use x="411.279297" xlink:href="#LiberationSans-115"/>
      <use x="461.279297" xlink:href="#LiberationSans-116"/>
     </g>
    </g>
    <g id="line2d_73">
     <path d="M 404.022813 120.2525 
L 424.022813 120.2525 
" style="fill:none;stroke:#808080;stroke-linecap:round;stroke-opacity:0.9;"/>
    </g>
    <g id="line2d_74">
     <g>
      <use style="fill:#808080;fill-opacity:0.9;stroke:#808080;stroke-opacity:0.9;" x="414.022813" xlink:href="#m01666de8a4" y="120.2525"/>
     </g>
    </g>
    <g id="text_20">
     <!-- dermamnist -->
     <g style="fill:#262626;" transform="translate(432.022813 123.7525)scale(0.1 -0.1)">
      <use xlink:href="#LiberationSans-100"/>
      <use x="55.615234" xlink:href="#LiberationSans-101"/>
      <use x="111.230469" xlink:href="#LiberationSans-114"/>
      <use x="144.53125" xlink:href="#LiberationSans-109"/>
      <use x="227.832031" xlink:href="#LiberationSans-97"/>
      <use x="283.447266" xlink:href="#LiberationSans-109"/>
      <use x="366.748047" xlink:href="#LiberationSans-110"/>
      <use x="422.363281" xlink:href="#LiberationSans-105"/>
      <use x="444.580078" xlink:href="#LiberationSans-115"/>
      <use x="494.580078" xlink:href="#LiberationSans-116"/>
     </g>
    </g>
    <g id="line2d_75">
     <path d="M 404.022813 134.574375 
L 424.022813 134.574375 
" style="fill:none;stroke:#9400d3;stroke-linecap:round;stroke-opacity:0.9;"/>
    </g>
    <g id="line2d_76">
     <g>
      <use style="fill:#9400d3;fill-opacity:0.9;stroke:#9400d3;stroke-opacity:0.9;" x="414.022813" xlink:href="#m7b13ac6d15" y="134.574375"/>
     </g>
    </g>
    <g id="text_21">
     <!-- breastmnist -->
     <g style="fill:#262626;" transform="translate(432.022813 138.074375)scale(0.1 -0.1)">
      <defs>
       <path d="M 51.421875 26.65625 
Q 51.421875 -0.984375 31.984375 -0.984375 
Q 25.984375 -0.984375 22 1.1875 
Q 18.015625 3.375 15.53125 8.203125 
L 15.4375 8.203125 
Q 15.4375 6.6875 15.234375 3.578125 
Q 15.046875 0.484375 14.9375 0 
L 6.453125 0 
Q 6.734375 2.640625 6.734375 10.890625 
L 6.734375 72.46875 
L 15.53125 72.46875 
L 15.53125 51.8125 
Q 15.53125 48.640625 15.328125 44.34375 
L 15.53125 44.34375 
Q 17.96875 49.421875 22 51.609375 
Q 26.03125 53.8125 31.984375 53.8125 
Q 42 53.8125 46.703125 47.0625 
Q 51.421875 40.328125 51.421875 26.65625 
z
M 42.1875 26.375 
Q 42.1875 37.453125 39.25 42.234375 
Q 36.328125 47.015625 29.734375 47.015625 
Q 22.3125 47.015625 18.921875 41.9375 
Q 15.53125 36.859375 15.53125 25.828125 
Q 15.53125 15.4375 18.84375 10.46875 
Q 22.171875 5.515625 29.640625 5.515625 
Q 36.28125 5.515625 39.234375 10.421875 
Q 42.1875 15.328125 42.1875 26.375 
z
" id="LiberationSans-98"/>
      </defs>
      <use xlink:href="#LiberationSans-98"/>
      <use x="55.615234" xlink:href="#LiberationSans-114"/>
      <use x="88.916016" xlink:href="#LiberationSans-101"/>
      <use x="144.53125" xlink:href="#LiberationSans-97"/>
      <use x="200.146484" xlink:href="#LiberationSans-115"/>
      <use x="250.146484" xlink:href="#LiberationSans-116"/>
      <use x="277.929688" xlink:href="#LiberationSans-109"/>
      <use x="361.230469" xlink:href="#LiberationSans-110"/>
      <use x="416.845703" xlink:href="#LiberationSans-105"/>
      <use x="439.0625" xlink:href="#LiberationSans-115"/>
      <use x="489.0625" xlink:href="#LiberationSans-116"/>
     </g>
    </g>
    <g id="line2d_77">
     <path d="M 404.022813 148.89625 
L 424.022813 148.89625 
" style="fill:none;stroke:#ffa500;stroke-linecap:round;stroke-opacity:0.9;"/>
    </g>
    <g id="line2d_78">
     <g>
      <use style="fill:#ffa500;fill-opacity:0.9;stroke:#ffa500;stroke-opacity:0.9;" x="414.022813" xlink:href="#m20f738d81d" y="148.89625"/>
     </g>
    </g>
    <g id="text_22">
     <!-- organmnist_coronal -->
     <g style="fill:#262626;" transform="translate(432.022813 152.39625)scale(0.1 -0.1)">
      <defs>
       <path d="M -1.515625 -19.875 
L -1.515625 -13.53125 
L 56.734375 -13.53125 
L 56.734375 -19.875 
z
" id="LiberationSans-95"/>
      </defs>
      <use xlink:href="#LiberationSans-111"/>
      <use x="55.615234" xlink:href="#LiberationSans-114"/>
      <use x="88.916016" xlink:href="#LiberationSans-103"/>
      <use x="144.53125" xlink:href="#LiberationSans-97"/>
      <use x="200.146484" xlink:href="#LiberationSans-110"/>
      <use x="255.761719" xlink:href="#LiberationSans-109"/>
      <use x="339.0625" xlink:href="#LiberationSans-110"/>
      <use x="394.677734" xlink:href="#LiberationSans-105"/>
      <use x="416.894531" xlink:href="#LiberationSans-115"/>
      <use x="466.894531" xlink:href="#LiberationSans-116"/>
      <use x="494.677734" xlink:href="#LiberationSans-95"/>
      <use x="550.292969" xlink:href="#LiberationSans-99"/>
      <use x="600.292969" xlink:href="#LiberationSans-111"/>
      <use x="655.908203" xlink:href="#LiberationSans-114"/>
      <use x="689.208984" xlink:href="#LiberationSans-111"/>
      <use x="744.824219" xlink:href="#LiberationSans-110"/>
      <use x="800.439453" xlink:href="#LiberationSans-97"/>
      <use x="856.054688" xlink:href="#LiberationSans-108"/>
     </g>
    </g>
    <g id="line2d_79">
     <path d="M 404.022813 163.218125 
L 424.022813 163.218125 
" style="fill:none;stroke:#ffc0cb;stroke-linecap:round;stroke-opacity:0.9;"/>
    </g>
    <g id="line2d_80">
     <g>
      <use style="fill:#ffc0cb;fill-opacity:0.9;stroke:#ffc0cb;stroke-opacity:0.9;" x="414.022813" xlink:href="#m33fbe0f193" y="163.218125"/>
     </g>
    </g>
    <g id="text_23">
     <!-- organmnist_sagittal -->
     <g style="fill:#262626;" transform="translate(432.022813 166.718125)scale(0.1 -0.1)">
      <use xlink:href="#LiberationSans-111"/>
      <use x="55.615234" xlink:href="#LiberationSans-114"/>
      <use x="88.916016" xlink:href="#LiberationSans-103"/>
      <use x="144.53125" xlink:href="#LiberationSans-97"/>
      <use x="200.146484" xlink:href="#LiberationSans-110"/>
      <use x="255.761719" xlink:href="#LiberationSans-109"/>
      <use x="339.0625" xlink:href="#LiberationSans-110"/>
      <use x="394.677734" xlink:href="#LiberationSans-105"/>
      <use x="416.894531" xlink:href="#LiberationSans-115"/>
      <use x="466.894531" xlink:href="#LiberationSans-116"/>
      <use x="494.677734" xlink:href="#LiberationSans-95"/>
      <use x="550.292969" xlink:href="#LiberationSans-115"/>
      <use x="600.292969" xlink:href="#LiberationSans-97"/>
      <use x="655.908203" xlink:href="#LiberationSans-103"/>
      <use x="711.523438" xlink:href="#LiberationSans-105"/>
      <use x="733.740234" xlink:href="#LiberationSans-116"/>
      <use x="761.523438" xlink:href="#LiberationSans-116"/>
      <use x="789.306641" xlink:href="#LiberationSans-97"/>
      <use x="844.921875" xlink:href="#LiberationSans-108"/>
     </g>
    </g>
    <g id="line2d_81">
     <path d="M 404.022813 177.54 
L 424.022813 177.54 
" style="fill:none;stroke:#808000;stroke-linecap:round;stroke-opacity:0.9;"/>
    </g>
    <g id="line2d_82">
     <g>
      <use style="fill:#808000;fill-opacity:0.9;stroke:#808000;stroke-opacity:0.9;" x="414.022813" xlink:href="#mfc51a15b71" y="177.54"/>
     </g>
    </g>
    <g id="text_24">
     <!-- organmnist_axial -->
     <g style="fill:#262626;" transform="translate(432.022813 181.04)scale(0.1 -0.1)">
      <defs>
       <path d="M 39.109375 0 
L 24.90625 21.6875 
L 10.59375 0 
L 1.125 0 
L 19.921875 27.15625 
L 2 52.828125 
L 11.71875 52.828125 
L 24.90625 32.28125 
L 37.984375 52.828125 
L 47.796875 52.828125 
L 29.890625 27.25 
L 48.921875 0 
z
" id="LiberationSans-120"/>
      </defs>
      <use xlink:href="#LiberationSans-111"/>
      <use x="55.615234" xlink:href="#LiberationSans-114"/>
      <use x="88.916016" xlink:href="#LiberationSans-103"/>
      <use x="144.53125" xlink:href="#LiberationSans-97"/>
      <use x="200.146484" xlink:href="#LiberationSans-110"/>
      <use x="255.761719" xlink:href="#LiberationSans-109"/>
      <use x="339.0625" xlink:href="#LiberationSans-110"/>
      <use x="394.677734" xlink:href="#LiberationSans-105"/>
      <use x="416.894531" xlink:href="#LiberationSans-115"/>
      <use x="466.894531" xlink:href="#LiberationSans-116"/>
      <use x="494.677734" xlink:href="#LiberationSans-95"/>
      <use x="550.292969" xlink:href="#LiberationSans-97"/>
      <use x="605.908203" xlink:href="#LiberationSans-120"/>
      <use x="655.908203" xlink:href="#LiberationSans-105"/>
      <use x="678.125" xlink:href="#LiberationSans-97"/>
      <use x="733.740234" xlink:href="#LiberationSans-108"/>
     </g>
    </g>
   </g>
  </g>
 </g>
 <defs>
  <clipPath id="pa3c2148993">
   <rect height="217.44" width="334.8" x="43.482813" y="35.89625"/>
  </clipPath>
 </defs>
</svg>
